<?xml version="1.0" encoding="UTF-8" standalone="no"?>
<!-- Created with Inkscape (http://www.inkscape.org/) -->

<svg
   xmlns:dc="http://purl.org/dc/elements/1.1/"
   xmlns:cc="http://creativecommons.org/ns#"
   xmlns:rdf="http://www.w3.org/1999/02/22-rdf-syntax-ns#"
   xmlns:svg="http://www.w3.org/2000/svg"
   xmlns="http://www.w3.org/2000/svg"
   version="1.1"
   width="210mm"
   height="297mm"
   id="svg2">
  <defs
     id="defs4" />
  <metadata
     id="metadata7">
    <rdf:RDF>
      <cc:Work
         rdf:about="">
        <dc:format>image/svg+xml</dc:format>
        <dc:type
           rdf:resource="http://purl.org/dc/dcmitype/StillImage" />
        <dc:title></dc:title>
      </cc:Work>
    </rdf:RDF>
  </metadata>
  <g
     id="layer1">
    <rect
       width="310.62192"
       height="310.62192"
       x="38.890873"
       y="25.037043"
       id="rect2985"
       style="fill:none;stroke:#000000;stroke-width:3.9000001;stroke-miterlimit:4;stroke-opacity:1;stroke-dasharray:none" />
    <rect
       width="257.5889"
       height="257.5889"
       x="91.418808"
       y="77.56498"
       id="rect2987"
       style="fill:none;stroke:#000000;stroke-width:3.9000001;stroke-miterlimit:4;stroke-opacity:1;stroke-dasharray:none" />
    <path
       d="m 89.468808,75.61498 0,261.4889 m 13.800002,-261.4889 0,261.4889 m 13.8,-261.4889 0,261.4889 m 13.8,-261.4889 0,261.4889 m 13.8,-261.4889 0,261.4889 m 13.8,-261.4889 0,261.4889 m 13.8,-261.4889 0,261.4889 m 13.8,-261.4889 0,261.4889 m 13.8,-261.4889 0,261.4889 m 13.8,-261.4889 0,261.4889 m 13.8,-261.4889 0,261.4889 m 13.8,-261.4889 0,261.4889 m 13.8,-261.4889 0,261.4889 m 13.8,-261.4889 0,261.4889 m 13.8,-261.4889 0,261.4889 m 13.8,-261.4889 0,261.4889 m 13.8,-261.4889 0,261.4889 m 13.8,-261.4889 0,261.4889 m 13.8,-261.4889 0,261.4889 M 89.468808,75.61498 l 261.488902,0 m -261.488902,17.1 261.488902,0 m -261.488902,17.1 261.488902,0 m -261.488902,17.1 261.488902,0 m -261.488902,17.1 261.488902,0 m -261.488902,17.1 261.488902,0 m -261.488902,17.1 261.488902,0 m -261.488902,17.1 261.488902,0 m -261.488902,17.1 261.488902,0 m -261.488902,17.1 261.488902,0 m -261.488902,17.1 261.488902,0 m -261.488902,17.1 261.488902,0 m -261.488902,17.1 261.488902,0 m -261.488902,17.1 261.488902,0 m -261.488902,17.1 261.488902,0 m -261.488902,17.10001 261.488902,0"
       id="path2989"
       style="fill:none;stroke:#000000;stroke-width:1pt;stroke-linecap:butt;stroke-linejoin:miter;stroke-opacity:1" />
    <path
       d="m 118.69292,104.83909 c 17.40761,-14.901333 2.55436,-8.499357 6.566,3.53554"
       id="path3057"
       style="fill:none;stroke:#000000;stroke-width:1px;stroke-linecap:butt;stroke-linejoin:miter;stroke-opacity:1" />
    <path
       d="m 120.71323,115.4457 c 9.49001,-4.62459 -2.02031,8.71247 -2.02031,7.57614 0,-0.6753 6.84499,-2.19347 7.57615,0"
       id="path3059"
       style="fill:none;stroke:#000000;stroke-width:1px;stroke-linecap:butt;stroke-linejoin:miter;stroke-opacity:1" />
    <path
       d="m 121.72338,131.10306 c 3.12302,-2.07989 4.89173,2.09982 2.02031,3.53553 -0.15889,0.0795 2.89071,0.87042 3.53553,1.51523 1.04782,1.04782 -2.10978,3.62501 -2.52538,4.04061 -0.91226,0.91227 -12.64153,-0.16348 -4.04061,-3.03045"
       id="path3061"
       style="fill:none;stroke:#000000;stroke-width:1px;stroke-linecap:butt;stroke-linejoin:miter;stroke-opacity:1" />
    <path
       d="m 122.73353,146.25535 c -6.395,8.5325 4.43824,8.26394 3.53554,5.55584 -3.085,0.7972 -3.04453,10.14374 -2.02031,7.07107"
       id="path3063"
       style="fill:none;stroke:#000000;stroke-width:1px;stroke-linecap:butt;stroke-linejoin:miter;stroke-opacity:1" />
    <path
       d="m 121.72338,167.97363 c -4.41049,0.33053 2.50374,-5.59913 4.04061,-2.52538 1.0487,2.0974 -4.18352,4.90785 -2.52538,6.56599 0.45404,0.45403 5.21201,1.19274 4.54569,2.52538 -1.38598,2.77196 -12.05828,-0.0212 -7.57615,-1.51523"
       id="path3071"
       style="fill:none;stroke:#000000;stroke-width:1px;stroke-linecap:butt;stroke-linejoin:miter;stroke-opacity:1" />
    <path
       d="m 121.72338,184.64115 c 5.40742,-2.73069 4.72526,0.3255 1.51523,3.53553 -8.0328,8.0328 1.11188,3.40108 6.06092,5.05076"
       id="path3073"
       style="fill:none;stroke:#000000;stroke-width:1px;stroke-linecap:butt;stroke-linejoin:miter;stroke-opacity:1" />
    <path
       d="m 122.22846,199.79343 c -0.18893,0.0971 2.67466,-2.37609 3.53553,-1.51522 1.12309,1.12309 -2.52538,5.6289 -2.52538,4.04061 0,-2.19513 5.55584,1.3404 5.55584,3.53553 0,3.70308 -11.40589,2.11838 -8.08122,1.01015"
       id="path3075"
       style="fill:none;stroke:#000000;stroke-width:1px;stroke-linecap:butt;stroke-linejoin:miter;stroke-opacity:1" />
    <path
       d="m 123.23861,215.95587 c -0.68248,1.12535 -4.68238,7.43946 -3.03046,9.09138 0.94358,0.94357 4.17796,0.50507 5.55584,0.50507 9.2309,0 1.99133,-12.482 -1.01015,2.52539 -0.23113,1.15562 0,2.35702 0,3.53553"
       id="path3077"
       style="fill:none;stroke:#000000;stroke-width:1px;stroke-linecap:butt;stroke-linejoin:miter;stroke-opacity:1" />
    <path
       d="m 125.25892,232.62339 c -8.26919,-3.1574 -4.40534,15.51702 0.50507,10.6066 0.45062,-0.45061 -2.89651,-5.45258 -4.54568,-0.50507"
       id="path3081"
       style="fill:none;stroke:#000000;stroke-width:1px;stroke-linecap:butt;stroke-linejoin:miter;stroke-opacity:1" />
    <path
       d="m 125.76399,251.31121 c -14.85033,-3.42606 1.51523,4.47638 1.51523,6.566 0,0.26032 -9.51161,6.31149 -7.57614,0.50507"
       id="path3083"
       style="fill:none;stroke:#000000;stroke-width:1px;stroke-linecap:butt;stroke-linejoin:miter;stroke-opacity:1" />
    <path
       d="m 121.72338,268.48381 c 0.50508,-0.67344 0.8418,-2.52538 1.51523,-2.02031 0.67344,0.50508 -2.35702,2.02031 -1.51523,2.02031 1.44828,0 2.24016,-3.17307 3.53554,-2.52538 0.48441,0.2422 -6.15392,15.21428 3.03045,9.09137"
       id="path3085"
       style="fill:none;stroke:#000000;stroke-width:1px;stroke-linecap:butt;stroke-linejoin:miter;stroke-opacity:1" />
    <path
       d="m 121.21831,288.68686 c -0.47345,-1.37052 1.11233,-4.24206 2.52538,-3.53554 4.4632,2.23161 0,5.08452 0,5.05077 0,-1.82108 4.54568,1.20938 4.54568,3.03045 0,0.69113 -12.57976,3.16739 -8.58629,0.50508"
       id="path3087"
       style="fill:none;stroke:#000000;stroke-width:1px;stroke-linecap:butt;stroke-linejoin:miter;stroke-opacity:1" />
    <path
       d="m 136.37059,115.4457 c -0.9533,-0.43291 0.85925,-3.61099 4.04061,-2.02031 1.64072,0.82036 -0.99861,3.70774 -1.51522,3.53554 -0.93132,-0.31044 -1.83123,-2.20939 -2.52539,-1.51523 -1.63048,1.63048 5.58142,4.9996 5.05077,6.06091 -1.90542,3.81082 -10.03224,1.66049 -6.566,0.50508"
       id="path3089"
       style="fill:none;stroke:#000000;stroke-width:1px;stroke-linecap:butt;stroke-linejoin:miter;stroke-opacity:1" />
    <path
       d="m 168.1904,111.40509 c -10.74101,-2.52613 -5.03634,18.91873 2.52538,7.57614"
       id="path3091"
       style="fill:none;stroke:#000000;stroke-width:1px;stroke-linecap:butt;stroke-linejoin:miter;stroke-opacity:1" />
    <path
       d="m 166.67517,117.466 c -0.80474,2.52026 -0.60033,5.77517 0,7.57615"
       id="path3093"
       style="fill:none;stroke:#000000;stroke-width:1px;stroke-linecap:butt;stroke-linejoin:miter;stroke-opacity:1" />
    <path
       d="m 147.48227,124.53707 c 2.33075,-4.13864 10.64385,-13.55735 11.11168,-14.14214"
       id="path3095"
       style="fill:none;stroke:#000000;stroke-width:1px;stroke-linecap:butt;stroke-linejoin:miter;stroke-opacity:1" />
    <path
       d="m 138.3909,131.10306 c -0.67344,-0.16836 -2.18867,0.16836 -2.02031,-0.50508 0.16836,-0.67343 2.71447,0.50508 2.02031,0.50508 -5.80646,0 -1.64844,-2.30782 0,0 2.5115,3.51611 -4.54569,5.77936 -4.54569,7.57614 0,1.0648 2.07808,-0.53396 3.03046,-1.01015 1.69773,-0.84886 4.84025,1.7116 6.06092,2.52538"
       id="path3097"
       style="fill:none;stroke:#000000;stroke-width:1px;stroke-linecap:butt;stroke-linejoin:miter;stroke-opacity:1" />
    <path
       d="m 134.35029,155.34672 c 7.1566,-16.2362 1.3487,0.2257 4.04061,2.02031"
       id="path3099"
       style="fill:none;stroke:#000000;stroke-width:1px;stroke-linecap:butt;stroke-linejoin:miter;stroke-opacity:1" />
    <path
       d="m 137.38075,166.4584 c 0.33671,-0.67344 0.33671,-2.35702 1.01015,-2.02031 0.67343,0.33672 -1.76308,2.02031 -1.01015,2.02031 1.07802,0 1.56117,-1.5382 2.52538,-2.02031 2.04817,-1.02408 -2.02031,4.27607 -2.02031,6.566 0,1.22567 2.66886,0.14347 3.53554,1.01015 1.66089,1.6609 -4.65257,4.23971 -6.06092,3.53553 -2.85096,-1.42548 -1.70054,-5.00443 0.50508,-5.55584"
       id="path3105"
       style="fill:none;stroke:#000000;stroke-width:1px;stroke-linecap:butt;stroke-linejoin:miter;stroke-opacity:1" />
    <path
       d="m 135.36044,184.64115 c 13.60025,-6.90046 -9.70993,7.07106 6.06092,7.07106"
       id="path3107"
       style="fill:none;stroke:#000000;stroke-width:1px;stroke-linecap:butt;stroke-linejoin:miter;stroke-opacity:1" />
    <path
       d="m 134.85536,209.89496 c 0.46549,-3.9588 5.10088,-7.77791 7.07107,-9.09137"
       id="path3111"
       style="fill:none;stroke:#000000;stroke-width:1px;stroke-linecap:butt;stroke-linejoin:miter;stroke-opacity:1" />
    <g
       transform="translate(-287.85715,-5.7142854)"
       id="g3133">
      <g
         id="g3117">
        <path
           d="m 470.73109,155.8518 5.99778,25.38008 89.46163,136.7494 16.66752,-16.66752 -89.90358,-128.28937 z"
           id="path3113"
           style="fill:none;stroke:#000000;stroke-width:1px;stroke-linecap:butt;stroke-linejoin:miter;stroke-opacity:1" />
        <path
           d="m 476.85514,181.16875 15.97303,-8.27062"
           id="path3115"
           style="fill:none;stroke:#000000;stroke-width:1px;stroke-linecap:butt;stroke-linejoin:miter;stroke-opacity:1" />
      </g>
      <path
         d="m 477.09208,179.54807 c -0.31627,-0.84794 -5.12596,-21.50059 -5.0296,-21.59695 0.22334,-0.22334 19.12492,14.64747 18.95898,14.91597 -0.16314,0.26397 -13.28079,7.12741 -13.62216,7.12741 -0.0774,0 -0.21564,-0.20089 -0.30722,-0.44643 z"
         id="path3121"
         style="fill:#d40000;fill-opacity:1;stroke:#000000;stroke-width:1.39285719;stroke-miterlimit:4;stroke-opacity:1;stroke-dasharray:none" />
      <path
         d="m 484.28572,177.00504 88.57143,134.28571"
         id="path3123"
         style="fill:none;stroke:#000000;stroke-width:1px;stroke-linecap:butt;stroke-linejoin:miter;stroke-opacity:1" />
      <path
         d="M 491.07143,174.50504 579.28571,304.1479"
         id="path3125"
         style="fill:none;stroke:#000000;stroke-width:1px;stroke-linecap:butt;stroke-linejoin:miter;stroke-opacity:1" />
      <path
         d="m 564.37115,313.8504 c -6.51986,-9.81753 -86.37586,-132.03316 -86.37586,-132.19394 0,-0.25497 6.07365,-3.56744 6.23066,-3.39811 0.15721,0.16956 87.16108,132.15656 87.44433,132.6552 0.11976,0.21083 -1.0308,1.62456 -2.55681,3.14161 l -2.77456,2.75829 -1.96776,-2.96305 z"
         id="path3127"
         style="fill:#ff6600;fill-opacity:1;stroke:#000000;stroke-width:1.39285719;stroke-miterlimit:4;stroke-opacity:1;stroke-dasharray:none" />
      <path
         d="M 532.63815,249.05291 C 510.53994,215.54297 490.89557,185.73425 488.984,182.81131 l -3.47557,-5.31445 2.49653,-1.25723 2.49653,-1.25723 1.06367,1.52391 c 0.58502,0.83815 20.421,29.97033 44.07995,64.73819 l 43.01629,63.21429 -2.73539,2.76785 c -1.50446,1.52232 -2.81952,2.76461 -2.92234,2.76064 -0.10282,-0.004 -18.26731,-27.42443 -40.36552,-60.93437 z"
         id="path3129"
         style="fill:#803300;fill-opacity:1;stroke:#000000;stroke-width:1.39285719;stroke-miterlimit:4;stroke-opacity:1;stroke-dasharray:none" />
      <path
         d="m 535.87756,239.07431 c -24.00197,-35.27396 -43.72773,-64.36324 -43.83503,-64.64285 -0.11101,-0.28928 0.0138,-0.50031 0.28955,-0.48965 0.26655,0.0103 20.53289,28.64973 45.03631,63.64316 l 44.55167,63.62441 -0.95777,0.9997 c -0.52678,0.54984 -1.06735,0.99971 -1.20128,0.99971 -0.13393,0 -19.88148,-28.86052 -43.88345,-64.13448 l 0,0 z"
         id="path3131"
         style="fill:#803300;fill-opacity:1;stroke:#000000;stroke-width:1.39285719;stroke-miterlimit:4;stroke-opacity:1;stroke-dasharray:none" />
    </g>
    <g
       transform="translate(6.4285714,7.1428572)"
       id="text3144"
       style="font-size:82.98186493px;font-style:normal;font-variant:normal;font-weight:normal;font-stretch:normal;line-height:125%;letter-spacing:0px;word-spacing:0px;fill:#000000;fill-opacity:1;stroke:none;font-family:cmex10;-inkscape-font-specification:cmex10">
      <path
         d="m 227.08618,152.10012 c -0.54026,-1.2e-4 -0.81038,-0.29726 -0.81037,-0.89141 -1e-5,-0.24323 0.081,-0.44582 0.24311,-0.60778 L 270.3194,99.588155 226.51892,39.580273 c -0.16208,-0.162077 -0.24312,-0.297139 -0.24311,-0.405185 l 0,-2.512146 c -1e-5,-0.189087 0.081,-0.364667 0.24311,-0.526741 0.18908,-0.135061 0.37816,-0.202592 0.56726,-0.202592 l 99.59444,0 10.04859,23.298131 -2.43111,0 c -2.56628,-5.888704 -6.86124,-10.251191 -12.88488,-13.087472 -6.02384,-2.836301 -12.31771,-4.592101 -18.88162,-5.267403 -6.53705,-0.6483 -14.14102,-0.972448 -22.81191,-0.972444 l -38.37101,0 39.18138,53.524924 c 0.10799,0.21604 0.16202,0.418633 0.16208,0.607777 -6e-5,0.162016 -0.0541,0.351102 -0.16208,0.567259 l -43.07115,50.121369 43.07115,0 c 8.50882,-1.1e-4 16.04525,-0.33776 22.60932,-1.01296 6.59092,-0.6484 12.85777,-2.4042 18.80058,-5.2674 5.96962,-2.8364 10.08899,-7.18538 12.35814,-13.04696 l 2.43111,0 -10.04859,26.70169 -99.59444,0"
         id="path3149"
         style="font-weight:bold;fill:#af0000;fill-opacity:1;stroke:#af0000;stroke-width:11.39999962;stroke-miterlimit:4;stroke-opacity:1;stroke-dasharray:none;-inkscape-font-specification:cmex10 Bold" />
      <g
         id="g4037"
         style="fill:none;stroke:#00cbff;stroke-width:5.9000001;stroke-miterlimit:4;stroke-opacity:1;stroke-dasharray:none">
        <path
           d="m 215.52837,291.80141 7.0789,19.29857 0,-21.62584 -7.0789,-20.07133 z"
           id="path4043"
           style="fill:#8686bf;fill-rule:evenodd;stroke:none" />
        <path
           d="m 215.52837,291.80141 0,-22.3986 -86.87182,-53.24046 0,24.44837 z"
           id="path4039"
           style="fill:#353564;fill-rule:evenodd;stroke:none" />
        <path
           d="m 215.52837,291.80141 7.0789,19.29857 L 139.62,263.5307 128.65655,240.61072 z"
           id="path4041"
           style="fill:#4d4d9f;fill-rule:evenodd;stroke:none" />
        <path
           d="m 128.65655,240.61072 10.96345,22.91998 0,-23.53061 -10.96345,-23.83774 z"
           id="path4049"
           style="fill:#e9e9ff;fill-rule:evenodd;stroke:none" />
        <path
           d="m 215.52837,269.40281 7.0789,20.07133 L 139.62,240.00009 128.65655,216.16235 z"
           id="path4047"
           style="fill:#afafde;fill-rule:evenodd;stroke:none" />
        <path
           d="m 222.60727,311.09998 0,-21.62584 -82.98727,-49.47405 0,23.53061 z"
           id="path4045"
           style="fill:#d7d7ff;fill-rule:evenodd;stroke:none" />
      </g>
      <g
         transform="translate(290.71429,73.571429)"
         id="g5497">
        <g
           transform="translate(117.14286,-152.85714)"
           id="g5489" />
      </g>
    </g>
  </g>
</svg>
